<svg xmlns="http://www.w3.org/2000/svg" version="1.1" xmlns:xlink="http://www.w3.org/1999/xlink" xmlns:svgjs="http://svgjs.dev/svgjs" width="1500" height="939" viewBox="0 0 1500 939"><g transform="matrix(1,0,0,1,-0.9090909090909918,-1.5145161290323017)"><svg viewBox="0 0 396 248" data-background-color="#ffffff" preserveAspectRatio="xMidYMid meet" height="939" width="1500" xmlns="http://www.w3.org/2000/svg" xmlns:xlink="http://www.w3.org/1999/xlink"><g id="tight-bounds" transform="matrix(1,0,0,1,0.2400000000000091,0.4000000000000057)"><svg viewBox="0 0 395.52 247.2" height="247.2" width="395.52"><g><svg></svg></g><g><svg viewBox="0 0 395.52 247.2" height="247.2" width="395.52"><g transform="matrix(1,0,0,1,76.24421232227488,47.215199999999996)"><svg viewBox="0 0 243.03157535545023 152.7696" height="152.7696" width="243.03157535545023"><g><svg viewBox="0 0 243.03157535545023 152.7696" height="152.7696" width="243.03157535545023"><g><svg viewBox="0 0 243.03157535545023 152.7696" height="152.7696" width="243.03157535545023"><g><svg viewBox="0 0 243.03157535545023 152.7696" height="152.7696" width="243.03157535545023"><g id="textblocktransform"><svg viewBox="0 0 243.03157535545023 152.7696" height="152.7696" width="243.03157535545023" id="textblock"><g><svg viewBox="0 0 243.03157535545023 152.7696" height="152.7696" width="243.03157535545023"><g transform="matrix(1,0,0,1,0,0)"><svg width="243.03157535545023" viewBox="4.45 -31 50.349999999999994 31.65" height="152.7696" data-palette-color="#000000"><path d="M13.6-10.85L4.45-10.85 4.45-28.2Q4.45-29 4.88-29.43 5.3-29.85 6.1-30.1L6.1-30.1Q7.55-30.55 9.63-30.75 11.7-30.95 13.65-30.95L13.65-30.95Q20-30.95 22.93-28.28 25.85-25.6 25.85-21.05L25.85-21.05Q25.85-17.95 24.53-15.65 23.2-13.35 20.5-12.1 17.8-10.85 13.6-10.85L13.6-10.85ZM6.65 0.25L6.65 0.25Q5.55 0.25 5-0.2 4.45-0.65 4.45-1.6L4.45-1.6 4.45-12.8 8.55-12.8 8.55-0.1Q8.25 0 7.75 0.13 7.25 0.25 6.65 0.25ZM8.5-27.1L8.5-14.25 13.35-14.25Q17.35-14.25 19.55-15.93 21.75-17.6 21.75-21L21.75-21Q21.75-24.4 19.63-25.98 17.5-27.55 13.55-27.55L13.55-27.55Q12.2-27.55 10.88-27.43 9.55-27.3 8.5-27.1L8.5-27.1ZM42.9 0.65L42.9 0.65Q39.4 0.65 36.72-1.07 34.05-2.8 32.55-6.33 31.05-9.85 31.05-15.2L31.05-15.2Q31.05-20.95 32.75-24.4 34.45-27.85 37.15-29.43 39.85-31 42.9-31L42.9-31Q46-31 48.72-29.4 51.45-27.8 53.12-24.33 54.8-20.85 54.8-15.2L54.8-15.2Q54.8-9.9 53.3-6.38 51.8-2.85 49.12-1.1 46.45 0.65 42.9 0.65ZM42.9-2.75L42.9-2.75Q46.6-2.75 48.65-5.98 50.7-9.2 50.7-15.2L50.7-15.2Q50.7-19.65 49.62-22.38 48.55-25.1 46.8-26.35 45.05-27.6 42.9-27.6L42.9-27.6Q40.8-27.6 39.02-26.33 37.25-25.05 36.2-22.3 35.15-19.55 35.15-15.2L35.15-15.2Q35.15-9.2 37.2-5.98 39.25-2.75 42.9-2.75Z" opacity="1" transform="matrix(1,0,0,1,0,0)" fill="#000000" class="wordmark-text-0" data-fill-palette-color="primary" id="text-0"></path></svg></g></svg></g></svg></g></svg></g></svg></g></svg></g></svg></g><g><path d="M245.116 0c68.262 0 123.6 55.338 123.6 123.6 0 68.262-55.338 123.6-123.6 123.6-30.402 0-58.24-10.976-79.768-29.183h11.147c19.26 14.022 42.974 22.294 68.621 22.295 64.458 0 116.712-52.254 116.711-116.712 0-64.458-52.254-116.712-116.711-116.712-25.647 0-49.361 8.272-68.621 22.295l-11.147 0c21.528-18.206 49.366-29.183 79.768-29.183z" fill="#000000" stroke="transparent" data-fill-palette-color="tertiary"></path></g></svg></g><defs></defs></svg><rect width="395.52" height="247.2" fill="none" stroke="none" visibility="hidden"></rect></g></svg></g></svg>